<svg xmlns="http://www.w3.org/2000/svg" viewBox="0 0 512 512">
  <defs><linearGradient id="g" x1="0" x2="1" y1="0" y2="1"><stop stop-color="#38bdf8"/><stop offset="1" stop-color="#d4af37"/></linearGradient></defs>
  <rect width="512" height="512" rx="90" fill="#0f172a"/>
  <path d="M256 32 434 135v242L256 480 78 377V135Z" fill="none" stroke="url(#g)" stroke-width="22"/>
  <path d="M207 170c-38 0-68 31-68 69 0 19 8 37 21 50-9 14-11 33-3 50 12 29 45 43 74 31 10 23 33 39 60 39 36 0 65-29 65-65V207c0-36-29-65-65-65-23 0-44 12-55 31-9-3-19-3-29-3Z" fill="none" stroke="#eaf6ff" stroke-width="18" stroke-linecap="round" stroke-linejoin="round"/>
  <path d="M236 173v196M194 219h55M185 289h64M249 247h76M249 319h73" stroke="#38bdf8" stroke-width="15" stroke-linecap="round"/>
  <circle cx="325" cy="247" r="10" fill="#d4af37"/><circle cx="322" cy="319" r="10" fill="#d4af37"/><circle cx="194" cy="219" r="10" fill="#d4af37"/>
</svg>
